<svg xmlns="http://www.w3.org/2000/svg" viewBox="0 0 1000 100">
  <!-- Background - making it transparent -->
  <rect width="1000" height="100" fill="none"/>
  
  <!-- Frame 1: Initial small glow -->
  <g transform="translate(0, 0)">
    <ellipse cx="50" cy="70" rx="30" ry="10" fill="#a5ffb8" opacity="0.4"/>
    <path d="M50 60 L45 45 L50 50 L55 45 L50 60" fill="#3eff77" opacity="0.5"/>
    <circle cx="50" cy="55" r="5" fill="#77ff9d" opacity="0.6"/>
  </g>
  
  <!-- Frame 2: Growing energy -->
  <g transform="translate(100, 0)">
    <ellipse cx="50" cy="70" rx="35" ry="12" fill="#a5ffb8" opacity="0.5"/>
    <path d="M50 58 L42 35 L50 45 L58 35 L50 58" fill="#3eff77" opacity="0.6"/>
    <circle cx="50" cy="52" r="8" fill="#77ff9d" opacity="0.7"/>
    <circle cx="50" cy="52" r="3" fill="#00ff44" opacity="0.8"/>
  </g>
  
  <!-- Frame 3: More particles appear -->
  <g transform="translate(200, 0)">
    <ellipse cx="50" cy="70" rx="40" ry="14" fill="#a5ffb8" opacity="0.6"/>
    <path d="M50 55 L40 25 L50 40 L60 25 L50 55" fill="#3eff77" opacity="0.7"/>
    <circle cx="50" cy="50" r="10" fill="#77ff9d" opacity="0.8"/>
    <circle cx="50" cy="50" r="5" fill="#00ff44" opacity="0.9"/>
    <circle cx="35" cy="60" r="3" fill="#00ff9d" opacity="0.6"/>
    <circle cx="65" cy="60" r="3" fill="#00ff9d" opacity="0.6"/>
    <path d="M30 65 L35 55 L40 65" fill="#4dff88" opacity="0.5" stroke="#4dff88" stroke-width="1"/>
    <path d="M60 65 L65 55 L70 65" fill="#4dff88" opacity="0.5" stroke="#4dff88" stroke-width="1"/>
  </g>
  
  <!-- Frame 4: Peak energy build-up -->
  <g transform="translate(300, 0)">
    <ellipse cx="50" cy="70" rx="45" ry="15" fill="#a5ffb8" opacity="0.7"/>
    <path d="M50 52 L38 15 L50 35 L62 15 L50 52" fill="#3eff77" opacity="0.8"/>
    <circle cx="50" cy="48" r="12" fill="#77ff9d" opacity="0.9"/>
    <circle cx="50" cy="48" r="6" fill="#00ff44"/>
    <circle cx="32" cy="58" r="4" fill="#00ff9d" opacity="0.7"/>
    <circle cx="68" cy="58" r="4" fill="#00ff9d" opacity="0.7"/>
    <path d="M25 65 L32 52 L39 65" fill="#4dff88" opacity="0.6" stroke="#4dff88" stroke-width="1.5"/>
    <path d="M61 65 L68 52 L75 65" fill="#4dff88" opacity="0.6" stroke="#4dff88" stroke-width="1.5"/>
    <circle cx="50" cy="30" r="3" fill="#00ffa2" opacity="0.8"/>
  </g>
  
  <!-- Frame 5: Full bloom explosion starts -->
  <g transform="translate(400, 0)">
    <ellipse cx="50" cy="72" rx="48" ry="18" fill="#a5ffb8" opacity="0.8"/>
    <path d="M50 50 L35 10 L50 32 L65 10 L50 50" fill="#3eff77" opacity="0.9"/>
    <circle cx="50" cy="45" r="15" fill="#77ff9d" opacity="0.9"/>
    <circle cx="50" cy="45" r="8" fill="#00ff44"/>
    
    <!-- Runes appearing on the ground -->
    <path d="M30 75 L35 65 L40 75" fill="#4dff88" opacity="0.7" stroke="#4dff88" stroke-width="2"/>
    <path d="M60 75 L65 65 L70 75" fill="#4dff88" opacity="0.7" stroke="#4dff88" stroke-width="2"/>
    <path d="M45 78 L50 68 L55 78" fill="#4dff88" opacity="0.7" stroke="#4dff88" stroke-width="2"/>
    
    <!-- Extra energy tendrils -->
    <path d="M50 45 C30 40, 20 30, 15 20" stroke="#00ff88" stroke-width="1.5" fill="none" opacity="0.6"/>
    <path d="M50 45 C70 40, 80 30, 85 20" stroke="#00ff88" stroke-width="1.5" fill="none" opacity="0.6"/>
    <circle cx="15" cy="20" r="2" fill="#00ff9d"/>
    <circle cx="85" cy="20" r="2" fill="#00ff9d"/>
  </g>
  
  <!-- Frame 6: Full energy explosion -->
  <g transform="translate(500, 0)">
    <ellipse cx="50" cy="75" rx="50" ry="20" fill="#a5ffb8" opacity="0.9"/>
    <circle cx="50" cy="42" r="20" fill="#77ff9d" opacity="0.8"/>
    <circle cx="50" cy="42" r="10" fill="#00ff44"/>
    
    <!-- Magical runes fully visible -->
    <path d="M20 80 L30 65 L40 80" fill="#4dff88" opacity="0.8" stroke="#4dff88" stroke-width="2"/>
    <path d="M60 80 L70 65 L80 80" fill="#4dff88" opacity="0.8" stroke="#4dff88" stroke-width="2"/>
    <path d="M40 85 L50 65 L60 85" fill="#4dff88" opacity="0.8" stroke="#4dff88" stroke-width="2"/>
    
    <!-- Energy burst particles -->
    <circle cx="30" cy="50" r="5" fill="#00ff9d" opacity="0.7"/>
    <circle cx="70" cy="50" r="5" fill="#00ff9d" opacity="0.7"/>
    <circle cx="45" cy="25" r="3" fill="#00ff9d" opacity="0.8"/>
    <circle cx="55" cy="25" r="3" fill="#00ff9d" opacity="0.8"/>
    <circle cx="50" cy="20" r="4" fill="#00ffa2"/>
    
    <!-- Energy tendrils -->
    <path d="M50 42 C20 30, 10 20, 5 5" stroke="#00ff88" stroke-width="2" fill="none" opacity="0.7"/>
    <path d="M50 42 C80 30, 90 20, 95 5" stroke="#00ff88" stroke-width="2" fill="none" opacity="0.7"/>
    <circle cx="5" cy="5" r="3" fill="#00ff9d"/>
    <circle cx="95" cy="5" r="3" fill="#00ff9d"/>
  </g>
  
  <!-- Frame 7: Energy starts to dissipate -->
  <g transform="translate(600, 0)">
    <ellipse cx="50" cy="75" rx="48" ry="18" fill="#a5ffb8" opacity="0.8"/>
    <circle cx="50" cy="45" r="15" fill="#77ff9d" opacity="0.7"/>
    <circle cx="50" cy="45" r="8" fill="#00ff44" opacity="0.9"/>
    
    <!-- Runes glowing -->
    <path d="M25 80 L32 70 L39 80" fill="#4dff88" opacity="0.6" stroke="#4dff88" stroke-width="1.5"/>
    <path d="M61 80 L68 70 L75 80" fill="#4dff88" opacity="0.6" stroke="#4dff88" stroke-width="1.5"/>
    <path d="M42 85 L50 70 L58 85" fill="#4dff88" opacity="0.6" stroke="#4dff88" stroke-width="1.5"/>
    
    <!-- Dissipating particles -->
    <circle cx="35" cy="40" r="4" fill="#00ff9d" opacity="0.6"/>
    <circle cx="65" cy="40" r="4" fill="#00ff9d" opacity="0.6"/>
    <circle cx="42" cy="30" r="3" fill="#00ff9d" opacity="0.5"/>
    <circle cx="58" cy="30" r="3" fill="#00ff9d" opacity="0.5"/>
    <circle cx="50" cy="25" r="3" fill="#00ffa2" opacity="0.8"/>
    
    <!-- Fading tendrils -->
    <path d="M50 45 C25 35, 15 25, 12 15" stroke="#00ff88" stroke-width="1.5" fill="none" opacity="0.5"/>
    <path d="M50 45 C75 35, 85 25, 88 15" stroke="#00ff88" stroke-width="1.5" fill="none" opacity="0.5"/>
  </g>
  
  <!-- Frame 8: Energy continues to fade -->
  <g transform="translate(700, 0)">
    <ellipse cx="50" cy="75" rx="45" ry="15" fill="#a5ffb8" opacity="0.6"/>
    <circle cx="50" cy="50" r="10" fill="#77ff9d" opacity="0.5"/>
    <circle cx="50" cy="50" r="5" fill="#00ff44" opacity="0.7"/>
    
    <!-- Fading runes -->
    <path d="M30 80 L35 72 L40 80" fill="#4dff88" opacity="0.4" stroke="#4dff88" stroke-width="1"/>
    <path d="M60 80 L65 72 L70 80" fill="#4dff88" opacity="0.4" stroke="#4dff88" stroke-width="1"/>
    <path d="M45 82 L50 74 L55 82" fill="#4dff88" opacity="0.4" stroke="#4dff88" stroke-width="1"/>
    
    <!-- Last particles floating -->
    <circle cx="40" cy="45" r="3" fill="#00ff9d" opacity="0.4"/>
    <circle cx="60" cy="45" r="3" fill="#00ff9d" opacity="0.4"/>
    <circle cx="45" cy="35" r="2" fill="#00ff9d" opacity="0.3"/>
    <circle cx="55" cy="35" r="2" fill="#00ff9d" opacity="0.3"/>
    <circle cx="50" cy="30" r="2" fill="#00ffa2" opacity="0.5"/>
  </g>
  
  <!-- Frame 9: Almost gone -->
  <g transform="translate(800, 0)">
    <ellipse cx="50" cy="75" rx="40" ry="13" fill="#a5ffb8" opacity="0.4"/>
    <circle cx="50" cy="55" r="8" fill="#77ff9d" opacity="0.3"/>
    <circle cx="50" cy="55" r="3" fill="#00ff44" opacity="0.5"/>
    
    <!-- Last traces of runes -->
    <path d="M35 80 L38 75 L41 80" fill="#4dff88" opacity="0.2" stroke="#4dff88" stroke-width="0.5"/>
    <path d="M59 80 L62 75 L65 80" fill="#4dff88" opacity="0.2" stroke="#4dff88" stroke-width="0.5"/>
    <path d="M47 82 L50 77 L53 82" fill="#4dff88" opacity="0.2" stroke="#4dff88" stroke-width="0.5"/>
    
    <!-- Final floating particles -->
    <circle cx="45" cy="50" r="2" fill="#00ff9d" opacity="0.2"/>
    <circle cx="55" cy="50" r="2" fill="#00ff9d" opacity="0.2"/>
    <circle cx="50" cy="40" r="1" fill="#00ffa2" opacity="0.3"/>
  </g>
  
  <!-- Frame 10: Just a faint trace -->
  <g transform="translate(900, 0)">
    <ellipse cx="50" cy="75" rx="35" ry="10" fill="#a5ffb8" opacity="0.2"/>
    <circle cx="50" cy="60" r="5" fill="#77ff9d" opacity="0.1"/>
    <circle cx="50" cy="60" r="2" fill="#00ff44" opacity="0.2"/>
    
    <!-- Barely visible final glow -->
    <circle cx="50" cy="55" r="15" fill="#77ff9d" opacity="0.05"/>
  </g>
</svg>
